# xmcd
#
# Track frame offsets:
#	150
#	10484
#	21324
#	36576
#	50115
#	63912
#	76005
#	86995
#	105437
#	116705
#	126561
#	138607
#
# Disc length: 2006 seconds
#
# Revision: 0
# Processed by: cddbd v1.4PL0 Copyright (c) Steve Scherf et al.
# Submitted via: dBpowerAMP V4.0
#
DISCID=ae07d40c
DTITLE=DEL REEVES - DEL REEVES GOSPEL
DYEAR=1900
DGENRE=
TTITLE0=I' GONNA SING MY SONGS FOR JESUS
TTITLE1=ONLY THROUGH YOU LORD
TTITLE2=WORKING LIKE THE DEVIL FOR THE LORD
TTITLE3=WAIT A LITTLE LONGER
TTITLE4=LEARNING TO LEAN
TTITLE5=ONE DAY AT A TIME
TTITLE6=A SINNER SUCH AS I
TTITLE7=HE WAS THERE ALL THE TIME
TTITLE8=FOR THE LIFE THAT HE GAVE ME
TTITLE9=LAY YOUR HANDS ON ME
TTITLE10=THE CHAIR THAT ROCKED US ALL
TTITLE11=LESS OF ME
EXTD=
EXTT0=
EXTT1=
EXTT2=
EXTT3=
EXTT4=
EXTT5=
EXTT6=
EXTT7=
EXTT8=
EXTT9=
EXTT10=
EXTT11=
PLAYORDER=
